<svg width="830" height="491" viewBox="0 0 830 491" fill="none" xmlns="http://www.w3.org/2000/svg">
<g clip-path="url(#clip0)">
<path opacity="0.2" d="M129.689 92.4065V108.592H115.04C119.63 103.035 124.513 97.6401 129.689 92.4065Z" fill="#03C2A0"/>
<path opacity="0.2" d="M156.573 88.3022H136.905V108.592H156.573V88.3022Z" fill="#03C2A0"/>
<path opacity="0.2" d="M183.449 88.3022H163.782V108.592H183.449V88.3022Z" fill="#03C2A0"/>
<path opacity="0.2" d="M210.333 88.3022H190.666V108.592H210.333V88.3022Z" fill="#03C2A0"/>
<path opacity="0.2" d="M237.21 88.3022H217.542V108.592H237.21V88.3022Z" fill="#03C2A0"/>
<path opacity="0.2" d="M264.094 88.3022H244.426V108.592H264.094V88.3022Z" fill="#03C2A0"/>
<path d="M290.978 88.3022H271.31V108.592H290.978V88.3022Z" fill="#03C2A0"/>
<path opacity="0.2" d="M317.854 88.3022H298.186V108.592H317.854V88.3022Z" fill="#03C2A0"/>
<path opacity="0.2" d="M344.738 88.3022H325.07V108.592H344.738V88.3022Z" fill="#03C2A0"/>
<path opacity="0.2" d="M371.614 88.3022H351.947V108.592H371.614V88.3022Z" fill="#03C2A0"/>
<path d="M398.499 88.3022H378.831V108.592H398.499V88.3022Z" fill="#03C2A0"/>
<path opacity="0.2" d="M425.383 88.3022H405.715V108.592H425.383V88.3022Z" fill="#03C2A0"/>
<path opacity="0.2" d="M452.259 88.3022H432.591V108.592H452.259V88.3022Z" fill="#03C2A0"/>
<path opacity="0.2" d="M479.143 88.3022H459.475V108.592H479.143V88.3022Z" fill="#03C2A0"/>
<path opacity="0.2" d="M506.027 88.3022H486.359V108.592H506.027V88.3022Z" fill="#03C2A0"/>
<path opacity="0.2" d="M532.903 88.3022H513.236V108.592H532.903V88.3022Z" fill="#03C2A0"/>
<path opacity="0.2" d="M559.787 88.3022H540.12V108.592H559.787V88.3022Z" fill="#03C2A0"/>
<path d="M586.664 88.3022H566.996V108.592H586.664V88.3022Z" fill="#03C2A0"/>
<path d="M613.548 88.3022H593.88V108.592H613.548V88.3022Z" fill="#03C2A0"/>
<path opacity="0.2" d="M640.432 88.3022H620.764V108.592H640.432V88.3022Z" fill="#03C2A0"/>
<path opacity="0.2" d="M667.308 88.3022H647.64V108.592H667.308V88.3022Z" fill="#03C2A0"/>
<path d="M694.192 88.3022H674.524V108.592H694.192V88.3022Z" fill="#03C2A0"/>
<path d="M721.068 88.3022H701.401V108.592H721.068V88.3022Z" fill="#03C2A0"/>
<path d="M102.813 124.667V134.291H96.506C98.5105 131.014 100.613 127.806 102.813 124.667Z" fill="#03C2A0"/>
<path opacity="0.2" d="M129.689 114.001H110.021V134.291H129.689V114.001Z" fill="#03C2A0"/>
<path d="M156.573 114.001H136.905V134.291H156.573V114.001Z" fill="#03C2A0"/>
<path opacity="0.2" d="M183.449 114.001H163.782V134.291H183.449V114.001Z" fill="#03C2A0"/>
<path opacity="0.7" d="M210.333 114.001H190.666V134.291H210.333V114.001Z" fill="#03C2A0"/>
<path opacity="0.2" d="M237.21 114.001H217.542V134.291H237.21V114.001Z" fill="#03C2A0"/>
<path opacity="0.4" d="M264.094 114.001H244.426V134.291H264.094V114.001Z" fill="#03C2A0"/>
<path d="M290.978 114.001H271.31V134.291H290.978V114.001Z" fill="#03C2A0"/>
<path opacity="0.4" d="M317.854 114.001H298.186V134.291H317.854V114.001Z" fill="#03C2A0"/>
<path opacity="0.2" d="M344.738 114.001H325.07V134.291H344.738V114.001Z" fill="#03C2A0"/>
<path opacity="0.4" d="M371.614 114.001H351.947V134.291H371.614V114.001Z" fill="#03C2A0"/>
<path d="M398.499 114.001H378.831V134.291H398.499V114.001Z" fill="#03C2A0"/>
<path opacity="0.4" d="M425.383 114.001H405.715V134.291H425.383V114.001Z" fill="#03C2A0"/>
<path opacity="0.4" d="M452.259 114.001H432.591V134.291H452.259V114.001Z" fill="#03C2A0"/>
<path opacity="0.2" d="M479.143 114.001H459.475V134.291H479.143V114.001Z" fill="#03C2A0"/>
<path opacity="0.4" d="M506.027 114.001H486.359V134.291H506.027V114.001Z" fill="#03C2A0"/>
<path opacity="0.4" d="M532.903 114.001H513.236V134.291H532.903V114.001Z" fill="#03C2A0"/>
<path opacity="0.2" d="M559.787 114.001H540.12V134.291H559.787V114.001Z" fill="#03C2A0"/>
<path opacity="0.2" d="M586.664 114.001H566.996V134.291H586.664V114.001Z" fill="#03C2A0"/>
<path opacity="0.4" d="M613.548 114.001H593.88V134.291H613.548V114.001Z" fill="#03C2A0"/>
<path opacity="0.2" d="M640.432 114.001H620.764V134.291H640.432V114.001Z" fill="#03C2A0"/>
<path d="M667.308 114.001H647.64V134.291H667.308V114.001Z" fill="#03C2A0"/>
<path d="M694.192 114.001H674.524V134.291H694.192V114.001Z" fill="#03C2A0"/>
<path d="M721.068 114.001H701.401V134.291H721.068V114.001Z" fill="#03C2A0"/>
<path opacity="0.2" d="M49.0445 145.816V159.997H29.3768V153.07C35.7406 150.13 42.3163 147.704 49.0445 145.816V145.816Z" fill="#03C2A0"/>
<path opacity="0.2" d="M75.9285 141.234V159.997H56.2609V144.018L75.9285 141.234Z" fill="#03C2A0"/>
<path d="M102.805 139.707H83.1372V159.997H102.805V139.707Z" fill="#03C2A0"/>
<path opacity="0.7" d="M129.689 139.707H110.021V159.997H129.689V139.707Z" fill="#03C2A0"/>
<path d="M156.573 139.707H136.905V159.997H156.573V139.707Z" fill="#03C2A0"/>
<path opacity="0.7" d="M183.449 139.707H163.782V159.997H183.449V139.707Z" fill="#03C2A0"/>
<path opacity="0.7" d="M210.333 139.707H190.666V159.997H210.333V139.707Z" fill="#03C2A0"/>
<path opacity="0.2" d="M237.21 139.707H217.542V159.997H237.21V139.707Z" fill="#03C2A0"/>
<path opacity="0.4" d="M264.094 139.707H244.426V159.997H264.094V139.707Z" fill="#03C2A0"/>
<path opacity="0.4" d="M290.978 139.707H271.31V159.997H290.978V139.707Z" fill="#03C2A0"/>
<path d="M317.854 139.707H298.186V159.997H317.854V139.707Z" fill="#03C2A0"/>
<path opacity="0.2" d="M344.738 139.707H325.07V159.997H344.738V139.707Z" fill="#03C2A0"/>
<path opacity="0.4" d="M371.614 139.707H351.947V159.997H371.614V139.707Z" fill="#03C2A0"/>
<path d="M398.499 139.707H378.831V159.997H398.499V139.707Z" fill="#03C2A0"/>
<path opacity="0.2" d="M425.383 139.707H405.715V159.997H425.383V139.707Z" fill="#03C2A0"/>
<path opacity="0.4" d="M452.259 139.707H432.591V159.997H452.259V139.707Z" fill="#03C2A0"/>
<path opacity="0.2" d="M479.143 139.707H459.475V159.997H479.143V139.707Z" fill="#03C2A0"/>
<path d="M506.027 139.707H486.359V159.997H506.027V139.707Z" fill="#03C2A0"/>
<path opacity="0.2" d="M532.903 139.707H513.236V159.997H532.903V139.707Z" fill="#03C2A0"/>
<path opacity="0.7" d="M559.787 139.707H540.12V159.997H559.787V139.707Z" fill="#03C2A0"/>
<path opacity="0.7" d="M586.664 139.707H566.996V159.997H586.664V139.707Z" fill="#03C2A0"/>
<path opacity="0.4" d="M613.548 139.707H593.88V159.997H613.548V139.707Z" fill="#03C2A0"/>
<path opacity="0.2" d="M640.432 139.707H620.764V159.997H640.432V139.707Z" fill="#03C2A0"/>
<path d="M667.308 139.707H647.64V159.997H667.308V139.707Z" fill="#03C2A0"/>
<path d="M694.192 139.707H674.524V159.997H694.192V139.707Z" fill="#03C2A0"/>
<path d="M721.068 139.707H701.401V159.997H721.068V139.707Z" fill="#03C2A0"/>
<path opacity="0.2" d="M49.0445 165.406H29.3768V185.696H49.0445V165.406Z" fill="#03C2A0"/>
<path opacity="0.2" d="M75.9285 165.406H56.2609V185.696H75.9285V165.406Z" fill="#03C2A0"/>
<path opacity="0.2" d="M102.805 165.406H83.1372V185.696H102.805V165.406Z" fill="#03C2A0"/>
<path opacity="0.2" d="M129.689 165.406H110.021V185.696H129.689V165.406Z" fill="#03C2A0"/>
<path d="M156.573 165.406H136.905V185.696H156.573V165.406Z" fill="#03C2A0"/>
<path opacity="0.7" d="M183.449 165.406H163.782V185.696H183.449V165.406Z" fill="#03C2A0"/>
<path opacity="0.7" d="M210.333 165.406H190.666V185.696H210.333V165.406Z" fill="#03C2A0"/>
<path opacity="0.2" d="M237.21 165.406H217.542V185.696H237.21V165.406Z" fill="#03C2A0"/>
<path opacity="0.2" d="M264.094 165.406H244.426V185.696H264.094V165.406Z" fill="#03C2A0"/>
<path opacity="0.4" d="M290.978 165.406H271.31V185.696H290.978V165.406Z" fill="#03C2A0"/>
<path opacity="0.4" d="M317.854 165.406H298.186V185.696H317.854V165.406Z" fill="#03C2A0"/>
<path d="M344.738 165.406H325.07V185.696H344.738V165.406Z" fill="#03C2A0"/>
<path opacity="0.2" d="M371.614 165.406H351.947V185.696H371.614V165.406Z" fill="#03C2A0"/>
<path opacity="0.4" d="M398.499 165.406H378.831V185.696H398.499V165.406Z" fill="#03C2A0"/>
<path opacity="0.4" d="M425.383 165.406H405.715V185.696H425.383V165.406Z" fill="#03C2A0"/>
<path opacity="0.4" d="M452.259 165.406H432.591V185.696H452.259V165.406Z" fill="#03C2A0"/>
<path opacity="0.4" d="M479.143 165.406H459.475V185.696H479.143V165.406Z" fill="#03C2A0"/>
<path opacity="0.2" d="M506.027 165.406H486.359V185.696H506.027V165.406Z" fill="#03C2A0"/>
<path opacity="0.2" d="M532.903 165.406H513.236V185.696H532.903V165.406Z" fill="#03C2A0"/>
<path opacity="0.2" d="M559.787 165.406H540.12V185.696H559.787V165.406Z" fill="#03C2A0"/>
<path opacity="0.2" d="M586.664 165.406H566.996V185.696H586.664V165.406Z" fill="#03C2A0"/>
<path opacity="0.7" d="M613.548 165.406H593.88V185.696H613.548V165.406Z" fill="#03C2A0"/>
<path opacity="0.7" d="M640.432 165.406H620.764V185.696H640.432V165.406Z" fill="#03C2A0"/>
<path opacity="0.4" d="M667.308 165.406H647.64V185.696H667.308V165.406Z" fill="#03C2A0"/>
<path opacity="0.2" d="M694.192 165.406H674.524V185.696H694.192V165.406Z" fill="#03C2A0"/>
<path d="M721.068 165.406H701.401V185.696H721.068V165.406Z" fill="#03C2A0"/>
<path opacity="0.2" d="M49.0445 191.112H29.3768V211.402H49.0445V191.112Z" fill="#03C2A0"/>
<path opacity="0.2" d="M75.9285 191.112H56.2609V211.402H75.9285V191.112Z" fill="#03C2A0"/>
<path opacity="0.4" d="M102.805 191.112H83.1372V211.402H102.805V191.112Z" fill="#03C2A0"/>
<path opacity="0.2" d="M129.689 191.112H110.021V211.402H129.689V191.112Z" fill="#03C2A0"/>
<path opacity="0.2" d="M156.573 191.112H136.905V211.402H156.573V191.112Z" fill="#03C2A0"/>
<path opacity="0.7" d="M183.449 191.112H163.782V211.402H183.449V191.112Z" fill="#03C2A0"/>
<path opacity="0.7" d="M210.333 191.112H190.666V211.402H210.333V191.112Z" fill="#03C2A0"/>
<path opacity="0.2" d="M237.21 191.112H217.542V211.402H237.21V191.112Z" fill="#03C2A0"/>
<path opacity="0.2" d="M264.094 191.112H244.426V211.402H264.094V191.112Z" fill="#03C2A0"/>
<path opacity="0.4" d="M290.978 191.112H271.31V211.402H290.978V191.112Z" fill="#03C2A0"/>
<path d="M317.854 191.112H298.186V211.402H317.854V191.112Z" fill="#03C2A0"/>
<path opacity="0.2" d="M344.738 191.112H325.07V211.402H344.738V191.112Z" fill="#03C2A0"/>
<path d="M371.614 191.112H351.947V211.402H371.614V191.112Z" fill="#03C2A0"/>
<path d="M398.499 191.112H378.831V211.402H398.499V191.112Z" fill="#03C2A0"/>
<path d="M425.383 191.112H405.715V211.402H425.383V191.112Z" fill="#03C2A0"/>
<path opacity="0.2" d="M452.259 191.112H432.591V211.402H452.259V191.112Z" fill="#03C2A0"/>
<path d="M479.143 191.112H459.475V211.402H479.143V191.112Z" fill="#03C2A0"/>
<path opacity="0.2" d="M506.027 191.112H486.359V211.402H506.027V191.112Z" fill="#03C2A0"/>
<path opacity="0.2" d="M532.903 191.112H513.236V211.402H532.903V191.112Z" fill="#03C2A0"/>
<path opacity="0.2" d="M559.787 191.112H540.12V211.402H559.787V191.112Z" fill="#03C2A0"/>
<path opacity="0.2" d="M586.664 191.112H566.996V211.402H586.664V191.112Z" fill="#03C2A0"/>
<path opacity="0.2" d="M613.548 191.112H593.88V211.402H613.548V191.112Z" fill="#03C2A0"/>
<path opacity="0.7" d="M640.432 191.112H620.764V211.402H640.432V191.112Z" fill="#03C2A0"/>
<path opacity="0.2" d="M667.308 191.112H647.64V211.402H667.308V191.112Z" fill="#03C2A0"/>
<path opacity="0.2" d="M694.192 191.112H674.524V211.402H694.192V191.112Z" fill="#03C2A0"/>
<path d="M721.068 191.112H701.401V211.402H721.068V191.112Z" fill="#03C2A0"/>
<path opacity="0.2" d="M49.0445 216.811H29.3768V237.101H49.0445V216.811Z" fill="#03C2A0"/>
<path opacity="0.2" d="M75.9285 216.811H56.2609V237.101H75.9285V216.811Z" fill="#03C2A0"/>
<path opacity="0.2" d="M102.805 216.811H83.1372V237.101H102.805V216.811Z" fill="#03C2A0"/>
<path opacity="0.4" d="M129.689 216.811H110.021V237.101H129.689V216.811Z" fill="#03C2A0"/>
<path opacity="0.2" d="M156.573 216.811H136.905V237.101H156.573V216.811Z" fill="#03C2A0"/>
<path opacity="0.2" d="M183.449 216.811H163.782V237.101H183.449V216.811Z" fill="#03C2A0"/>
<path opacity="0.7" d="M210.333 216.811H190.666V237.101H210.333V216.811Z" fill="#03C2A0"/>
<path opacity="0.2" d="M237.21 216.811H217.542V237.101H237.21V216.811Z" fill="#03C2A0"/>
<path opacity="0.2" d="M264.094 216.811H244.426V237.101H264.094V216.811Z" fill="#03C2A0"/>
<path opacity="0.2" d="M290.978 216.811H271.31V237.101H290.978V216.811Z" fill="#03C2A0"/>
<path d="M317.854 216.811H298.186V237.101H317.854V216.811Z" fill="#03C2A0"/>
<path opacity="0.2" d="M344.738 216.811H325.07V237.101H344.738V216.811Z" fill="#03C2A0"/>
<path d="M371.614 216.811H351.947V237.101H371.614V216.811Z" fill="#03C2A0"/>
<path d="M398.499 216.811H378.831V237.101H398.499V216.811Z" fill="#03C2A0"/>
<path opacity="0.2" d="M425.383 216.811H405.715V237.101H425.383V216.811Z" fill="#03C2A0"/>
<path opacity="0.2" d="M452.259 216.811H432.591V237.101H452.259V216.811Z" fill="#03C2A0"/>
<path opacity="0.2" d="M479.143 216.811H459.475V237.101H479.143V216.811Z" fill="#03C2A0"/>
<path opacity="0.2" d="M506.027 216.811H486.359V237.101H506.027V216.811Z" fill="#03C2A0"/>
<path opacity="0.2" d="M532.903 216.811H513.236V237.101H532.903V216.811Z" fill="#03C2A0"/>
<path opacity="0.2" d="M559.787 216.811H540.12V237.101H559.787V216.811Z" fill="#03C2A0"/>
<path opacity="0.2" d="M586.664 216.811H566.996V237.101H586.664V216.811Z" fill="#03C2A0"/>
<path opacity="0.2" d="M613.548 216.811H593.88V237.101H613.548V216.811Z" fill="#03C2A0"/>
<path opacity="0.2" d="M640.432 216.811H620.764V237.101H640.432V216.811Z" fill="#03C2A0"/>
<path opacity="0.2" d="M667.308 216.811H647.64V237.101H667.308V216.811Z" fill="#03C2A0"/>
<path opacity="0.4" d="M694.192 216.811H674.524V237.101H694.192V216.811Z" fill="#03C2A0"/>
<path d="M721.068 216.811H701.401V237.101H721.068V216.811Z" fill="#03C2A0"/>
<path opacity="0.7" d="M49.0445 242.517H29.3768V262.807H49.0445V242.517Z" fill="#03C2A0"/>
<path opacity="0.7" d="M75.9285 242.517H56.2609V262.807H75.9285V242.517Z" fill="#03C2A0"/>
<path opacity="0.7" d="M102.805 242.517H83.1372V262.807H102.805V242.517Z" fill="#03C2A0"/>
<path opacity="0.7" d="M129.689 242.517H110.021V262.807H129.689V242.517Z" fill="#03C2A0"/>
<path opacity="0.7" d="M156.573 242.517H136.905V262.807H156.573V242.517Z" fill="#03C2A0"/>
<path opacity="0.2" d="M183.449 242.517H163.782V262.807H183.449V242.517Z" fill="#03C2A0"/>
<path opacity="0.2" d="M210.333 242.517H190.666V262.807H210.333V242.517Z" fill="#03C2A0"/>
<path opacity="0.2" d="M237.21 242.517H217.542V262.807H237.21V242.517Z" fill="#03C2A0"/>
<path opacity="0.2" d="M264.094 242.517H244.426V262.807H264.094V242.517Z" fill="#03C2A0"/>
<path opacity="0.2" d="M290.978 242.517H271.31V262.807H290.978V242.517Z" fill="#03C2A0"/>
<path opacity="0.2" d="M317.854 242.517H298.186V262.807H317.854V242.517Z" fill="#03C2A0"/>
<path d="M344.738 242.517H325.07V262.807H344.738V242.517Z" fill="#03C2A0"/>
<path opacity="0.2" d="M371.614 242.517H351.947V262.807H371.614V242.517Z" fill="#03C2A0"/>
<path opacity="0.2" d="M398.499 242.517H378.831V262.807H398.499V242.517Z" fill="#03C2A0"/>
<path opacity="0.2" d="M425.383 242.517H405.715V262.807H425.383V242.517Z" fill="#03C2A0"/>
<path d="M452.259 242.517H432.591V262.807H452.259V242.517Z" fill="#03C2A0"/>
<path opacity="0.2" d="M479.143 242.517H459.475V262.807H479.143V242.517Z" fill="#03C2A0"/>
<path opacity="0.2" d="M506.027 242.517H486.359V262.807H506.027V242.517Z" fill="#03C2A0"/>
<path opacity="0.2" d="M532.903 242.517H513.236V262.807H532.903V242.517Z" fill="#03C2A0"/>
<path opacity="0.2" d="M559.787 242.517H540.12V262.807H559.787V242.517Z" fill="#03C2A0"/>
<path opacity="0.2" d="M586.664 242.517H566.996V262.807H586.664V242.517Z" fill="#03C2A0"/>
<path opacity="0.2" d="M613.548 242.517H593.88V262.807H613.548V242.517Z" fill="#03C2A0"/>
<path opacity="0.2" d="M640.432 242.517H620.764V262.807H640.432V242.517Z" fill="#03C2A0"/>
<path opacity="0.2" d="M667.308 242.517H647.64V262.807H667.308V242.517Z" fill="#03C2A0"/>
<path opacity="0.2" d="M694.192 242.517H674.524V262.807H694.192V242.517Z" fill="#03C2A0"/>
<path d="M721.068 242.517H701.401V262.807H721.068V242.517Z" fill="#03C2A0"/>
<path d="M514.3 317.163C529.147 317.163 541.184 304.746 541.184 289.429C541.184 274.111 529.147 261.694 514.3 261.694C499.452 261.694 487.416 274.111 487.416 289.429C487.416 304.746 499.452 317.163 514.3 317.163Z" fill="#767D9F"/>
<path d="M512.904 254.146C515.587 266.225 517.864 278.394 519.735 290.653C520.298 294.296 520.799 298.138 519.519 301.582C518.447 304.453 516.266 306.696 514.554 309.209C512.842 311.723 511.547 314.944 512.588 317.823C513.629 320.702 516.666 322.277 519.565 323.089C527.861 325.395 536.704 323.717 544.961 321.219C548.7 320.227 552.284 318.695 555.609 316.67C559.109 314.379 561.977 311.198 564.614 307.921C576.649 292.864 584.528 274.794 591.945 256.834C587.179 257.281 582.379 256.553 577.94 254.708C573.501 252.863 569.552 249.955 566.418 246.224C563.38 242.541 561.152 237.411 562.864 232.909C557.844 235.749 551.885 235.94 546.48 237.88C543.129 239.201 539.902 240.838 536.843 242.772C533.153 244.972 529.483 247.215 525.833 249.501C521.662 252.094 517.754 254.4 512.904 254.146Z" fill="#AE6E79"/>
<path d="M569.132 274.968C564.421 284.425 558.292 293.517 549.541 299.148C540.79 304.779 529.01 306.306 520.244 300.739C515.926 298.018 512.657 293.882 508.887 290.399C505.117 286.915 500.406 283.932 495.341 284.386C489.759 284.887 485.388 289.381 481.649 293.684C475.974 300.222 470.492 307.038 466.476 314.777C458.766 329.65 456.939 347.037 457.278 363.899C457.617 380.761 459.984 397.536 460.038 414.397C460.115 435.141 456.707 455.717 453.261 476.15C484.948 472.126 516.674 480.922 548.431 484.255C568.754 486.411 589.231 486.363 609.662 486.307C613.255 486.307 617.079 486.212 620.07 484.16C621.899 482.784 623.377 480.972 624.38 478.878C627.202 473.51 628.335 467.385 629.121 461.332C631.118 446.045 631.18 430.567 631.234 415.137C631.373 377.755 631.504 340.237 626.901 303.149C625.768 294.026 624.318 284.855 620.926 276.321C617.534 267.786 611.998 259.936 604.257 255.363C599.285 252.42 587.758 247.297 581.899 250.264C575.322 253.573 572.285 268.637 569.132 274.968Z" fill="#767D9F"/>
<path d="M571.475 380.531C570.28 357.465 565.415 332.848 575.77 312.375C578.314 307.348 569.185 301.073 572.007 296.205C575.451 290.27 578.062 283.862 579.763 277.172C580.349 274.873 580.82 272.439 580.264 270.133C579.239 265.925 575.207 263.42 571.784 260.859C568.006 258.027 566.063 249.397 564.845 244.729C563.627 240.06 574.536 245.683 578.923 244.021C585.014 241.722 592.754 243.17 598.83 245.5C602.222 246.789 605.907 246.9 609.523 246.995C616.547 247.186 623.593 247.369 630.563 246.478C633.693 246.073 636.831 245.46 639.977 245.643C648.003 246.113 654.98 251.776 659.729 258.473C664.478 265.17 667.501 272.972 671.394 280.226C674.64 286.271 678.51 291.982 681.278 298.273C683.73 303.841 685.279 309.822 686.814 315.771L690.769 331.035C691.461 333.218 691.789 335.507 691.74 337.803C691.54 340.245 690.491 342.52 689.427 344.691C685.404 352.739 680.58 360.333 675.033 367.351C666.714 377.874 656.614 387.363 651.673 399.962C649.745 404.869 648.673 410.087 647.694 415.288C643.746 436.093 640.941 457.111 639.291 478.242C630.282 473.942 620.839 470.685 611.134 468.531C606.297 467.463 601.407 466.666 596.486 466.145C592.176 465.683 586.617 466.558 582.516 465.349C575.654 463.337 574.898 451.367 573.858 445.099C572.192 435.117 571.861 424.96 571.799 414.875C571.722 403.406 572.069 391.96 571.475 380.531Z" fill="#4C4981"/>
<path d="M420.787 337.397C424.033 356.486 427.611 375.631 434.665 393.566C434.488 393.741 434.31 393.901 434.133 394.06C433.509 394.608 432.861 395.125 432.182 395.65C430.602 396.796 428.867 397.766 427.557 399.261C427.06 399.834 426.668 400.494 426.4 401.21C426.158 401.769 426.033 402.375 426.033 402.988C426.033 403.6 426.158 404.206 426.4 404.765C422.723 406.444 418.451 405.927 414.327 405.768C410.772 405.632 407.326 405.768 404.474 407.78C400.511 410.595 399.316 416.004 398.676 420.919C398.439 422.712 398.236 424.507 398.067 426.304C397.902 427.974 397.769 429.65 397.666 431.331C397.316 436.891 397.267 442.468 397.519 448.034C397.56 449.052 397.614 450.07 397.681 451.088C385.083 450.778 373.604 444.001 362.74 437.415C360.258 435.912 357.698 434.329 356.087 431.848C354.602 429.411 353.973 426.521 354.306 423.663C354.306 423.258 354.375 422.868 354.429 422.454C354.775 420.094 355.367 417.779 356.195 415.551C359.594 406.057 364.603 397.264 370.99 389.582C373.75 386.257 376.857 383.004 378.145 378.828C378.707 377.007 378.916 375.074 379.486 373.261C382.046 365.402 391.282 361.688 394.443 354.06C395.214 352.239 395.569 350.243 396.525 348.493C397.385 347.038 398.496 345.758 399.801 344.715C400.364 344.229 400.95 343.76 401.528 343.291C406.946 338.911 412.165 334.285 417.187 329.412C418.122 328.505 419.048 327.588 419.962 326.66C419.84 330.26 420.117 333.862 420.787 337.397V337.397Z" fill="#4C4981"/>
<path d="M498.479 280.942C497.369 282.151 496.166 283.288 494.986 284.418L494.67 284.712L493.421 285.905C491.154 287.923 489.193 290.28 487.601 292.896L487.469 293.119C483.537 300.381 484.995 309.321 486.089 317.569C487.447 327.847 488.058 338.216 487.917 348.588C487.716 362.905 486.082 377.126 486.051 391.427C486.051 394.672 486.12 397.909 486.259 401.155C486.483 406.428 486.868 411.693 487.331 416.959C487.832 422.733 488.433 428.5 488.996 434.266C489.443 438.728 489.867 443.182 490.222 447.636C490.399 449.943 490.569 452.241 490.708 454.548C490.869 457.252 491.001 459.964 491.078 462.669C491.132 464.387 491.162 466.097 491.162 467.815C491.162 468.793 491.162 469.763 491.162 470.734C491.162 472.595 491.114 474.451 491.016 476.301C490.913 478.682 490.756 481.068 490.546 483.46C490.307 486.061 489.883 488.9 488.109 490.73C488.001 490.841 487.886 490.944 487.77 491.048L485.272 490.73C468.052 488.603 450.668 488.283 433.385 489.775C433.763 487.087 434.11 484.406 434.449 481.71C434.603 480.437 434.758 479.157 434.904 477.876C435.074 476.413 435.236 474.949 435.39 473.486C435.567 471.895 435.729 470.304 435.883 468.714C436.284 464.615 436.636 460.513 436.939 456.409C437.387 450.423 437.726 444.426 437.957 438.418C438.07 435.549 438.158 432.678 438.219 429.804C438.307 426.241 438.348 422.675 438.343 419.106C438.343 415.638 438.314 412.165 438.258 408.687C438.258 407.541 438.212 406.396 438.119 405.259C438.053 404.235 437.916 403.217 437.71 402.212C437.138 399.897 436.364 397.639 435.398 395.468C435.228 395.054 435.066 394.672 434.904 394.235C434.812 394.02 434.727 393.797 434.642 393.583C439.083 389.502 442.244 384.038 445.281 378.661C450.208 370 455.25 360.956 456.075 350.951C456.9 340.945 452.082 329.706 442.814 326.652C440.293 325.857 437.626 325.634 435.027 325.165C432.576 324.719 427.464 323.709 424.627 321.896C423.085 323.529 421.543 325.133 420.001 326.708C420.095 324.305 420.664 321.947 421.674 319.78L422.769 319.836C422.68 319.581 422.638 319.311 422.646 319.04C422.646 318.189 423.216 317.227 424.434 316.161C428.066 312.979 433.778 312.272 436.068 307.969C437.024 306.179 437.186 304.047 437.957 302.17C440.17 296.817 446.523 294.845 450.347 290.566C454.171 286.287 455.127 280.226 458.219 275.454C460.528 271.969 463.731 269.215 467.47 267.5C467.779 267.349 468.095 267.198 468.411 267.063C474.81 264.239 482.412 263.595 489.042 263.611C491.617 263.611 498.294 263.69 501.563 265.034C502.093 265.23 502.579 265.536 502.989 265.933C506.474 269.846 501.054 278.11 498.479 280.942Z" fill="#4C4981"/>
<path d="M421.936 319.223C427.892 317.373 434.145 316.763 440.331 317.428C446.517 318.093 452.514 320.02 457.972 323.096C463.523 326.278 468.503 330.716 471.557 336.443C476.144 345.033 475.943 355.389 475.62 365.196C475.458 370.103 475.25 375.185 473.152 379.592C470.724 384.69 466.144 388.19 461.472 391.053C458.545 392.98 455.339 394.411 451.974 395.293C446.793 396.454 441.411 395.467 436.192 394.497C430.517 393.415 424.427 392.111 420.487 387.752C418.174 385.223 416.909 381.938 415.66 378.725C413.867 374.085 412.068 369.451 410.264 364.822C407.141 356.781 406.085 350.091 410.21 342.257C412.083 338.686 414.373 335.345 416.223 331.75C417.148 329.921 420.464 319.692 421.936 319.223Z" fill="#4C4981"/>
<path d="M745.963 456.719V480.501C730.148 487.279 713.183 490.739 696.058 490.682H488.133C488.025 490.793 487.909 490.896 487.793 491L485.295 490.682H115.433C84.4016 490.682 55.6441 482.044 32.0598 467.329V431.021L209.94 409.84H210.079L313.668 418.891L340.475 421.277L354.398 422.494L383.218 425.016L398.044 426.312L419.631 428.205L422.669 428.467L438.227 429.828L459.336 431.617L489.019 434.21L538.501 438.545L573.31 441.591L630.471 446.594L641.341 447.541L642.513 447.644L643.531 447.731L657.887 448.988L673.645 450.372L675.473 450.531L745.963 456.719Z" fill="#504F60"/>
<path d="M537.028 455.844L314.107 416.593L305.464 461.682L407.65 474.305L439.114 478.369L525.664 460.784L537.028 455.844Z" fill="#9C9CA1"/>
<path d="M421.636 476.111L533.32 454.453C533.878 454.342 534.454 454.361 535.005 454.507C535.556 454.653 536.068 454.924 536.506 455.299C536.944 455.673 537.296 456.143 537.537 456.675C537.778 457.207 537.901 457.787 537.899 458.374V458.374C537.902 459.305 537.587 460.207 537.011 460.924C536.435 461.64 535.633 462.126 534.746 462.295L425.676 483.365L421.636 476.111Z" fill="#9C9CA1"/>
<path d="M470.084 408.003C473.561 407.669 477.084 407.104 480.215 405.513C484.069 403.533 487.069 400.121 490.638 397.607C498.487 392.04 508.987 391.292 517.985 394.49C526.982 397.687 534.492 404.535 539.75 412.712C543.242 418.16 545.863 425.111 543.396 431.124C542.55 432.963 541.483 434.683 540.22 436.247L533.79 444.916C532.568 446.739 531.099 448.37 529.426 449.76C527.021 451.566 524.029 452.305 521.084 452.751C513.259 453.928 505.294 453.26 497.407 453.801C483.861 454.731 470.631 459.233 457.054 459.082C449.252 458.994 441.55 457.372 433.925 455.749L400.179 448.591C394.304 447.35 387.666 445.537 384.898 440.041C383.657 437.567 383.426 434.704 383.279 431.92C382.878 424.252 383.279 415.726 388.429 410.198C393.271 405.012 400.927 403.374 406.709 399.54C413.787 394.839 416.123 396.359 423.586 399.89C438.146 406.693 454.166 409.488 470.084 408.003V408.003Z" fill="#AE6E79"/>
<path opacity="0.05" d="M470.084 408.003C473.561 407.669 477.084 407.104 480.215 405.513C484.069 403.533 487.069 400.121 490.638 397.607C498.487 392.04 508.987 391.292 517.985 394.49C526.982 397.687 534.492 404.535 539.75 412.712C543.242 418.16 545.863 425.111 543.396 431.124C542.55 432.963 541.483 434.683 540.22 436.247L533.79 444.916C532.568 446.739 531.099 448.37 529.426 449.76C527.021 451.566 524.029 452.305 521.084 452.751C513.259 453.928 505.294 453.26 497.407 453.801C483.861 454.731 470.631 459.233 457.054 459.082C449.252 458.994 441.55 457.372 433.925 455.749L400.179 448.591C394.304 447.35 387.666 445.537 384.898 440.041C383.657 437.567 383.426 434.704 383.279 431.92C382.878 424.252 383.279 415.726 388.429 410.198C393.271 405.012 400.927 403.374 406.709 399.54C413.787 394.839 416.123 396.359 423.586 399.89C438.146 406.693 454.166 409.488 470.084 408.003V408.003Z" fill="black"/>
<path d="M605.599 397.098C596.131 400.876 586.61 404.67 576.695 406.921C560.073 410.699 542.679 410.103 526.188 414.422C517.476 416.712 508.818 420.403 499.867 419.655C495.865 419.321 492.003 418.064 488.109 417.11C466.237 411.542 441.373 413.348 423.609 427.665C417.534 432.556 412.561 438.657 408.051 445.163C407.086 446.568 406.434 448.176 406.141 449.871C405.848 451.567 405.922 453.308 406.357 454.971C406.793 456.634 407.579 458.177 408.659 459.489C409.739 460.802 411.088 461.853 412.607 462.565C419.515 465.843 426.915 467.879 434.488 468.586C444.611 469.509 454.78 468.03 464.849 466.55C479.791 464.363 494.74 462.168 509.643 459.71C514.993 458.827 520.344 457.913 525.726 457.213C564.452 452.162 603.88 458.302 642.706 454.087C646.63 453.657 650.624 453.101 654.194 451.375C663.23 447 667.701 435.467 665.836 425.334C663.97 415.201 656.769 406.778 648.103 401.608C640.84 397.257 633.007 395.5 624.92 393.654C617.41 391.849 612.831 394.235 605.599 397.098Z" fill="#AE6E79"/>
<path opacity="0.1" d="M688.656 336.522C692.928 342.297 693.837 350.044 693.375 357.274C692.912 364.504 691.247 371.654 691 378.916C690.661 388.874 692.989 398.8 692.596 408.726C692.319 415.67 690.723 422.478 688.834 429.144C686.606 437.01 683.383 445.465 676.344 449.243C667 454.262 647.401 451.438 637.571 455.367C638.466 449.617 647.039 441.289 647.933 435.538C648.55 431.562 649.175 427.473 648.512 423.489C647.664 418.406 644.772 413.896 641.342 410.142C635.883 404.169 628.759 399.675 620.934 398.212C613.108 396.748 593.949 397.949 587.689 403.047C586.918 397.782 601.258 392.708 606.3 391.57C608.814 390.99 611.697 391.316 613.71 389.669C617.565 386.551 614.766 380.34 614.951 375.353C615.097 371.376 617.349 367.733 617.804 363.756C618.575 357.393 614.55 350.911 616.13 344.667C616.716 342.36 618.019 340.332 618.921 338.137C621.666 331.416 620.463 323.749 618.999 316.606C618.089 312.12 617.202 307.062 619.623 303.236C621.867 299.665 628.235 312.383 632.313 311.794C645.782 309.846 657.972 299.546 668.85 307.976C674.393 312.271 675.118 316.726 677.331 322.858C679.482 328.696 685.056 331.687 688.656 336.522Z" fill="black"/>
<path d="M690.969 336.523C695.241 342.297 696.15 350.044 695.688 357.274C695.225 364.504 693.56 371.654 693.313 378.916C692.974 388.874 695.302 398.8 694.909 408.727C694.632 415.67 693.036 422.479 691.147 429.144C688.919 437.01 685.696 445.465 678.657 449.243C669.313 454.262 649.714 451.438 639.884 455.367C640.779 449.617 649.352 441.289 650.246 435.539C650.863 431.562 651.488 427.474 650.824 423.489C649.976 418.406 647.085 413.897 643.654 410.142C638.196 404.169 631.072 399.675 623.247 398.212C615.421 396.748 596.262 397.949 590.002 403.048C589.231 397.782 603.571 392.708 608.613 391.57C611.127 390.99 614.01 391.316 616.023 389.67C619.877 386.552 617.079 380.34 617.264 375.353C617.41 371.376 619.662 367.733 620.116 363.756C620.887 357.393 616.863 350.911 618.443 344.667C619.029 342.361 620.332 340.332 621.234 338.137C623.979 331.416 622.776 323.749 621.311 316.607C620.402 312.121 619.515 307.062 621.936 303.236C624.179 299.665 628.566 298.313 632.645 297.716C646.3 295.811 660.136 299.494 671.194 307.977C676.737 312.272 677.462 316.726 679.675 322.858C681.795 328.696 687.369 331.687 690.969 336.523Z" fill="#4C4981"/>
<path d="M180.836 298.838L222.754 458.66C223.268 460.618 224.349 462.368 225.851 463.677C227.354 464.986 229.208 465.791 231.165 465.986L419.839 484.685C421.377 484.838 422.928 484.608 424.362 484.016C425.796 483.423 427.071 482.485 428.082 481.279C429.092 480.073 429.807 478.635 430.168 477.086C430.529 475.536 430.524 473.92 430.155 472.372L384.251 279.59C383.705 277.298 382.388 275.281 380.536 273.896C378.684 272.511 376.416 271.848 374.135 272.026L189.417 286.279C187.998 286.393 186.622 286.828 185.385 287.553C184.149 288.279 183.083 289.277 182.263 290.477C181.444 291.676 180.891 293.047 180.644 294.493C180.397 295.938 180.463 297.422 180.836 298.838V298.838Z" fill="#9C9CA1"/>
<path d="M554.845 330.024C566.299 330.024 575.585 320.32 575.585 308.35C575.585 296.38 566.299 286.676 554.845 286.676C543.391 286.676 534.106 296.38 534.106 308.35C534.106 320.32 543.391 330.024 554.845 330.024Z" fill="white"/>
<path d="M571.876 268.812C571.876 268.812 576.248 282.222 563.349 287.862L561.699 290.836L569.779 299.061C569.779 299.061 579.74 280.314 578.661 273.656C578.661 273.656 577.119 266.896 571.876 268.812Z" fill="white"/>
<path d="M557.228 330.024C568.273 330.024 577.227 320.787 577.227 309.392C577.227 297.998 568.273 288.76 557.228 288.76C546.182 288.76 537.229 297.998 537.229 309.392C537.229 320.787 546.182 330.024 557.228 330.024Z" fill="#03C2A0"/>
<path d="M578.761 276.702L575.585 271.294L570.959 270.618C571.946 252.809 567.466 247.504 567.466 247.504L566.425 247.401L561.892 246.947L553.365 237.817V235.224C565.346 236.695 571.969 242.565 575.546 249.445C581.868 261.519 578.761 276.702 578.761 276.702Z" fill="#03C2A0"/>
<path opacity="0.1" d="M566.464 244.124V247.401L561.931 246.948L553.404 237.817C553.404 237.817 566.595 240.863 566.464 244.124Z" fill="black" stroke="#4C4981" stroke-miterlimit="10"/>
<path opacity="0.1" d="M578.761 276.703L575.585 271.294V249.477C581.868 261.519 578.761 276.703 578.761 276.703Z" fill="black" stroke="#4C4981" stroke-miterlimit="10"/>
<path d="M520.272 317.874C525.593 314.704 525.364 304.018 519.76 294.005C514.157 283.993 505.301 278.445 499.98 281.614C494.659 284.784 494.888 295.47 500.491 305.483C506.095 315.495 514.951 321.043 520.272 317.874Z" fill="white"/>
<path d="M513.128 297.995C518.733 308.008 525.61 314.697 520.29 317.879C514.97 321.06 499.474 319.47 493.869 309.448C488.264 299.426 493.352 285.587 498.672 282.405C503.992 279.224 507.515 287.957 513.128 297.995Z" fill="#03C2A0"/>
<path opacity="0.1" d="M563.033 225.854C563.033 257.852 541.808 288.689 510.792 288.689C495.895 288.689 481.609 282.584 471.076 271.718C460.543 260.851 454.626 246.113 454.626 230.746C454.626 215.379 460.543 200.64 471.076 189.774C481.609 178.908 495.895 172.803 510.792 172.803C541.808 172.835 563.033 193.849 563.033 225.854Z" fill="black"/>
<path d="M510.791 287.13C541.811 287.13 566.957 261.188 566.957 229.187C566.957 197.186 541.811 171.244 510.791 171.244C479.772 171.244 454.626 197.186 454.626 229.187C454.626 261.188 479.772 287.13 510.791 287.13Z" fill="#AE6E79"/>
<path d="M505.857 203.512C512.542 206.05 516.497 213.176 522.495 217.145C530.976 222.713 542.016 221.273 551.7 218.521C557.097 217.002 562.74 215.149 568.052 216.835C568.834 217.192 569.695 217.318 570.542 217.201C571.699 216.859 572.269 215.538 572.647 214.361C579.216 194.159 576.263 171.276 566.348 152.585C563.789 147.765 560.72 143.104 556.495 139.755C553.165 137.122 549.248 135.396 545.301 133.925C538.087 131.252 530.625 129.352 523.035 128.254C521.694 128.003 520.325 127.957 518.972 128.119C517.114 128.429 515.448 129.463 513.791 130.386C506.691 134.312 498.818 136.518 490.769 136.836C479.976 137.258 467.64 134.633 459.321 141.775C449.298 150.342 451.796 167.052 445.297 178.681C440.995 186.372 432.699 191.956 431.334 200.713C430.979 203.389 431.144 206.112 431.82 208.722C434.997 222.196 447.641 232.631 461.117 232.877C463.187 233.04 465.259 232.602 467.1 231.613C468.306 230.764 469.371 229.719 470.253 228.519C479.081 217.734 489.181 197.181 505.857 203.512Z" fill="#444053"/>
<path opacity="0.1" d="M572.647 208.499C572.269 209.676 571.699 210.997 570.542 211.339C569.695 211.456 568.834 211.33 568.052 210.973C562.74 209.287 557.066 211.14 551.707 212.659C542.016 215.411 530.953 216.883 522.503 211.283C516.497 207.306 512.549 200.148 505.857 197.65C489.181 191.287 479.081 211.872 470.23 222.657C469.348 223.857 468.283 224.902 467.077 225.751C465.236 226.74 463.164 227.179 461.094 227.016C447.664 226.769 435.012 216.334 431.797 202.86C431.62 202.065 431.465 201.269 431.35 200.474C431.35 200.546 431.35 200.609 431.311 200.681C430.956 203.357 431.121 206.08 431.797 208.69C434.973 222.164 447.625 232.599 461.094 232.846C463.164 233.009 465.236 232.571 467.077 231.581C468.283 230.732 469.348 229.687 470.23 228.487C479.081 217.702 489.181 197.149 505.857 203.481C512.549 206.018 516.497 213.144 522.503 217.113C530.983 222.681 542.016 221.241 551.707 218.489C557.104 216.97 562.74 215.117 568.052 216.803C568.834 217.16 569.695 217.287 570.542 217.169C571.699 216.827 572.269 215.507 572.647 214.329C575.297 206.063 576.467 197.369 576.101 188.671C575.874 195.417 574.711 202.094 572.647 208.499V208.499Z" fill="black"/>
</g>
<defs>
<clipPath id="clip0">
<rect width="882" height="491" fill="white" transform="translate(-52)"/>
</clipPath>
</defs>
</svg>
