<svg width="100" height="100" viewBox="0 0 100 100" fill="none" xmlns="http://www.w3.org/2000/svg">
<path d="M9.47447 2.90537C14.8241 -0.0782931 21.6458 -0.777395 28.1669 0.870488C31.3428 1.66946 34.0553 3.72307 35.6839 6.55069L41.3092 16.3256C43.3141 19.8105 43.8932 23.9316 42.9259 27.8311C41.9587 31.7307 39.5195 35.1084 36.1162 37.2612L31.1674 40.3947C29.119 41.6868 28.3673 43.6655 28.8372 45.2323C30.516 50.8376 34.2306 57.0546 38.3149 61.3116C39.5302 62.585 41.7602 62.8846 43.9402 61.6175L46.6776 60.0257C48.4739 58.9825 50.4606 58.3061 52.5219 58.0359C54.5832 57.7658 56.6779 57.9074 58.6837 58.4524C60.6896 58.9974 62.5664 59.9349 64.2048 61.2103C65.8432 62.4856 67.2104 64.0733 68.2265 65.8807L73.2692 74.838C74.9167 77.7717 75.1861 81.2735 74.0209 84.4257C71.6969 90.6864 67.218 95.7299 61.7118 98.2641C56.1178 100.83 49.5717 100.723 43.6458 96.7848C34.262 90.5553 22.9551 80.0688 12.7131 62.5787C2.33953 44.8515 -0.272645 29.7646 0.0217731 18.5166C0.2097 11.3196 4.03087 5.93898 9.47447 2.90537V2.90537Z" fill="#03C2A0"/>
<path d="M67.0551 0.533408C66.329 0.131128 65.4724 0.0327105 64.6735 0.259807C63.8747 0.486903 63.1991 1.02091 62.7954 1.74435C62.3917 2.4678 62.2929 3.32141 62.5208 4.11742C62.7487 4.91343 63.2846 5.58662 64.0107 5.9889L66.4161 7.32468C73.9307 11.4844 80.3229 17.3952 85.0464 24.552C89.7698 31.7087 92.6841 39.8987 93.5402 48.4219L93.7406 50.3881C93.7643 50.809 93.8732 51.2207 94.0609 51.5984C94.2486 51.9761 94.5111 52.3121 94.8326 52.586C95.1542 52.8598 95.5281 53.066 95.9317 53.192C96.3354 53.3179 96.7605 53.3611 97.1814 53.3189C97.6022 53.2768 98.0102 53.1501 98.3806 52.9465C98.751 52.7429 99.0761 52.4667 99.3365 52.1345C99.5968 51.8023 99.7869 51.4209 99.8953 51.0135C100.004 50.6061 100.028 50.181 99.9673 49.7639L99.7731 47.8039C98.8173 38.2761 95.5602 29.1206 90.2803 21.1202C85.0005 13.1198 77.8548 6.51241 69.4543 1.86295L67.0551 0.533408V0.533408Z" fill="#03C2A0"/>
<path d="M59.7135 17.2619C60.1414 16.5527 60.8344 16.0418 61.6403 15.8416C62.4462 15.6415 63.2988 15.7684 64.0107 16.1946L64.7875 16.6565C69.8428 19.678 74.1794 23.7572 77.4976 28.6123C80.8158 33.4674 83.0365 38.9826 84.0061 44.7766L84.2817 46.4432C84.3629 46.8531 84.3608 47.275 84.2753 47.684C84.1898 48.093 84.0228 48.4807 83.7842 48.8242C83.5456 49.1677 83.2402 49.46 82.8861 49.6837C82.532 49.9074 82.1364 50.058 81.7228 50.1265C81.3093 50.1951 80.8861 50.1802 80.4784 50.0827C80.0707 49.9853 79.6868 49.8073 79.3494 49.5592C79.0121 49.3112 78.7281 48.9982 78.5144 48.6388C78.3006 48.2794 78.1615 47.8809 78.1052 47.4669L77.8233 45.8003C77.0036 40.8981 75.1256 36.2317 72.319 32.1235C69.5124 28.0153 65.8441 24.5632 61.5677 22.0058L60.7909 21.5439C60.438 21.3333 60.1301 21.0555 59.8849 20.7263C59.6397 20.3971 59.462 20.023 59.362 19.6254C59.2619 19.2277 59.2415 18.8143 59.3018 18.4088C59.3621 18.0033 59.502 17.6136 59.7135 17.2619V17.2619Z" fill="#03C2A0"/>
</svg>
