<svg width="100" height="100" viewBox="0 0 100 100" fill="none" xmlns="http://www.w3.org/2000/svg">
<path d="M100 25C99.8047 31.7708 97.2819 37.6302 92.4316 42.5781C87.5814 47.526 81.7708 50 75 50C73.112 50 71.1589 49.7396 69.1406 49.2188C69.6615 51.237 70.752 52.9134 72.4121 54.248C74.0723 55.5827 75.9766 56.25 78.125 56.25L87.5 65.625L95.5078 73.9258C98.5026 76.9206 100 80.5176 100 84.7168C100 88.916 98.5026 92.4967 95.5078 95.459C92.513 98.4212 88.916 99.9023 84.7168 99.9023C80.5176 99.9023 76.9206 98.4375 73.9258 95.5078L65.625 87.5L56.25 78.125C56.25 75.5208 55.3385 73.3073 53.5156 71.4844C51.6927 69.6615 49.4792 68.75 46.875 68.75L46.1914 68.0664V67.9688L22.0703 99.1211C21.4193 99.707 18.6035 100 13.623 100C8.64258 100 5.85938 99.707 5.27344 99.1211L0.878906 94.8242C0.292969 94.1732 0 91.3574 0 86.377C0 81.3965 0.292969 78.5807 0.878906 77.9297L41.8945 46.1914L20.8008 25H9.375L0 6.25L6.25 0L25 9.375V20.7031L46.6797 42.4805L53.125 37.5C53.125 37.4349 53.1576 37.4023 53.2227 37.4023H53.3203C51.1068 33.4961 50 29.362 50 25C50 18.2292 52.4577 12.4023 57.373 7.51953C62.2884 2.63672 68.1641 0.130208 75 0V3.71094L66.9922 11.3281C63.9974 14.3229 62.5 17.9199 62.5 22.1191C62.5 26.3184 63.9974 29.9154 66.9922 32.9102C69.987 35.9049 73.6003 37.4023 77.832 37.4023C82.0638 37.4023 85.6771 35.9049 88.6719 32.9102L96.1914 25H100ZM12.5 81.25C10.7422 81.25 9.26107 81.8522 8.05664 83.0566C6.85221 84.2611 6.25 85.7259 6.25 87.4512C6.25 89.1764 6.85221 90.6576 8.05664 91.8945C9.26107 93.1315 10.7422 93.75 12.5 93.75C14.2578 93.75 15.7389 93.1315 16.9434 91.8945C18.1478 90.6576 18.75 89.1764 18.75 87.4512C18.75 85.7259 18.1478 84.2611 16.9434 83.0566C15.7389 81.8522 14.2578 81.25 12.5 81.25Z" fill="#03C2A0"/>
</svg>
