<svg width="80" height="60" viewBox="0 0 80 60" fill="none" xmlns="http://www.w3.org/2000/svg">
<path d="M80 52.5V7.5C80 3.35 76.8489 0 72.9453 0H7.05467C3.15109 0 0 3.35 0 7.5V52.5C0 56.65 3.15109 60 7.05467 60H72.9453C76.8489 60 80 56.65 80 52.5ZM73.8389 6.95C75.391 8.6 74.5444 10.3 73.6978 11.15L54.6032 29.75L72.9453 50.05C73.5097 50.75 73.8859 51.85 73.2275 52.6C72.6161 53.4 71.2052 53.35 70.5938 52.85L50.0412 34.2L39.9765 43.95L29.9588 34.2L9.40623 52.85C8.79483 53.35 7.38389 53.4 6.77249 52.6C6.11405 51.85 6.4903 50.75 7.05467 50.05L25.3968 29.75L6.30217 11.15C5.45561 10.3 4.60905 8.6 6.16108 6.95C7.71311 5.3 9.31217 6.1 10.629 7.3L39.9765 32.5L69.371 7.3C70.6878 6.1 72.2869 5.3 73.8389 6.95V6.95Z" fill="#03C2A0"/>
</svg>
