<svg width="88" height="100" viewBox="0 0 88 100" fill="none" xmlns="http://www.w3.org/2000/svg">
<path d="M44 0C32.3347 0.0122874 21.1511 4.15525 12.9025 11.5201C4.65392 18.8849 0.0138087 28.8703 4.68115e-05 39.2857C-0.0139247 47.7972 3.09997 56.0778 8.86404 62.8571C8.86404 62.8571 10.064 64.2679 10.26 64.4714L44 100L77.756 64.4536C77.932 64.2643 79.136 62.8571 79.136 62.8571L79.14 62.8464C84.9012 56.07 88.0136 47.7933 88 39.2857C87.9862 28.8703 83.3461 18.8849 75.0975 11.5201C66.8489 4.15525 55.6653 0.0122874 44 0ZM44 53.5714C40.8355 53.5714 37.7421 52.7336 35.1109 51.1638C32.4797 49.5941 30.4289 47.363 29.2179 44.7526C28.0069 42.1422 27.6901 39.2699 28.3075 36.4987C28.9248 33.7276 30.4487 31.1821 32.6863 29.1842C34.9239 27.1863 37.7749 25.8257 40.8786 25.2745C43.9823 24.7233 47.1993 25.0062 50.1229 26.0874C53.0465 27.1687 55.5454 28.9997 57.3035 31.349C59.0616 33.6983 60 36.4603 60 39.2857C59.9947 43.0731 58.3073 46.704 55.3078 49.382C52.3084 52.0601 48.2418 53.5667 44 53.5714Z" fill="#03C2A0"/>
</svg>
