<svg width="100" height="100" viewBox="0 0 100 100" fill="none" xmlns="http://www.w3.org/2000/svg">
<path d="M98.9268 94.3415L94.3415 99.0244C93.6911 99.6098 92.9106 99.9024 92 99.9024C91.0894 99.9024 90.3089 99.6098 89.6585 99.0244L74.9268 84.1951C71.0244 86.4065 66.8618 87.5122 62.439 87.5122C55.5447 87.5122 49.6585 85.0732 44.7805 80.1951C39.9024 75.3171 37.4634 69.4309 37.4634 62.5366C37.4634 55.6423 39.9024 49.7561 44.7805 44.878C49.6585 40 55.5447 37.561 62.439 37.561C69.3333 37.561 75.2195 40 80.0976 44.878C84.9756 49.7561 87.4146 55.6423 87.4146 62.5366C87.4146 66.9593 86.3089 71.0894 84.0976 74.9268L98.9268 89.7561C99.5772 90.4065 99.9024 91.1707 99.9024 92.0488C99.9024 92.9268 99.5772 93.6911 98.9268 94.3415V94.3415ZM62.4878 43.8049C57.3171 43.8049 52.8943 45.626 49.2195 49.2683C45.5447 52.9106 43.7073 57.3171 43.7073 62.4878C43.7073 67.6585 45.5447 72.0813 49.2195 75.7561C52.8943 79.4309 57.3171 81.2683 62.4878 81.2683C67.6585 81.2683 72.065 79.4309 75.7073 75.7561C79.3496 72.0813 81.1707 67.6585 81.1707 62.4878C81.1707 57.3171 79.3496 52.9106 75.7073 49.2683C72.065 45.626 67.6585 43.8049 62.4878 43.8049ZM68.6829 31.9024V31.3171C68.6829 29.561 69.3008 28.0813 70.5366 26.878C71.7724 25.6748 73.2358 25.0732 74.9268 25.0732H87.4146C89.1707 25.0732 90.6667 25.6748 91.9024 26.878C93.1382 28.0813 93.7561 29.561 93.7561 31.3171V62.5366H93.6585C93.6585 55.0569 91.3008 48.439 86.5854 42.6829C81.8699 36.9268 75.9024 33.3333 68.6829 31.9024ZM37.4634 43.8049V18.8293C37.4634 17.0732 38.0813 15.5935 39.3171 14.3902C40.5528 13.187 42.0163 12.5854 43.7073 12.5854H56.1951C57.9512 12.5854 59.4309 13.187 60.6341 14.3902C61.8374 15.5935 62.439 17.0732 62.439 18.8293V31.3171C57.4309 31.3171 52.748 32.439 48.3902 34.6829C44.0325 36.9268 40.3902 39.9675 37.4634 43.8049ZM37.4634 81.1707C40.3902 85.0732 44.0325 88.1463 48.3902 90.3902C52.748 92.6341 57.4309 93.7561 62.439 93.7561H68.6829C68.6829 95.4472 68.0813 96.9106 66.878 98.1463C65.6748 99.3821 64.1951 100 62.439 100H6.2439C4.55285 100 3.08943 99.3821 1.85366 98.1463C0.617886 96.9106 0 95.4309 0 93.7073C0 91.9837 0.601626 90.5203 1.80488 89.3171C3.00813 88.1138 4.4878 87.5122 6.2439 87.5122V6.2439C6.2439 4.55285 6.86179 3.08943 8.09756 1.85366C9.33333 0.617886 10.7967 0 12.4878 0H24.9756C26.7317 0 28.2114 0.617886 29.4146 1.85366C30.6179 3.08943 31.2195 4.55285 31.2195 6.2439V87.5122H37.4634V81.1707Z" fill="#03C2A0"/>
</svg>
