<svg width="150" height="150" viewBox="0 0 150 150" fill="none" xmlns="http://www.w3.org/2000/svg">
<path d="M93.125 31.875C93.125 31.875 91.875 32.25 89.75 32.9375C89.375 31.8125 88.875 30.375 88.125 29C85.75 24.4375 82.25 22.0625 78 22C77.6875 22 77.4375 22 77.125 22.0625C77 21.9375 76.875 21.75 76.75 21.625C74.9375 19.625 72.5625 18.6875 69.75 18.75C64.3125 18.9375 58.875 22.875 54.4375 29.875C51.3125 34.8125 49 41 48.3125 45.75C42.0625 47.6875 37.6875 49.0625 37.5625 49.0625C34.375 50.0625 34.3125 50.1875 33.875 53.125C33.5625 55.375 25.3125 119.375 25.3125 119.375L93.9375 131.25V31.75C93.625 31.75 93.3125 31.8125 93.125 31.875V31.875ZM77.25 36.8125C73.625 37.9375 69.625 39.1875 65.6875 40.375C66.8125 36.0625 68.9375 31.8125 71.5625 29C72.5625 27.9375 73.875 26.8125 75.5 26.125C77 29.3125 77.3125 33.75 77.25 36.8125ZM69.8125 22.375C71.0625 22.375 72.1875 22.625 73.125 23.25C71.625 24 70.25 25.125 68.875 26.5625C65.4375 30.25 62.75 36.0625 61.6875 41.625C58.375 42.625 55.1875 43.625 52.1875 44.5625C54.0625 35.75 61.4375 22.625 69.8125 22.375V22.375ZM59.1875 72.3125C59.5625 78.125 74.9375 79.4375 75.8125 93.125C76.5 103.875 70.125 111.25 60.875 111.812C49.875 112.5 43.75 106 43.75 106L46.0625 96.0625C46.0625 96.0625 52.1875 100.687 57.0625 100.375C60.25 100.187 61.375 97.5625 61.3125 95.75C60.8125 88.125 48.3125 88.5625 47.5625 76.0625C46.875 65.5 53.8125 54.875 69.0625 53.875C75 53.5 78 55 78 55L74.5 68.0625C74.5 68.0625 70.625 66.3125 66 66.5625C59.25 67 59.125 71.25 59.1875 72.3125ZM80.875 35.6875C80.8125 32.9375 80.5 29.0625 79.1875 25.75C83.3125 26.5625 85.375 31.1875 86.25 34C84.6875 34.5 82.875 35.0625 80.875 35.6875V35.6875ZM96.1875 131L124.688 123.938C124.688 123.938 112.437 41.0625 112.375 40.5C112.312 39.9375 111.812 39.625 111.375 39.5625C110.937 39.5 102.937 39.375 102.937 39.375C102.937 39.375 98.0625 34.625 96.1875 32.8125V131V131Z" fill="#03C2A0"/>
</svg>
