<svg width="100" height="100" viewBox="0 0 100 100" fill="none" xmlns="http://www.w3.org/2000/svg">
<path d="M31.4125 100C69.15 100 89.7937 61.5174 89.7937 28.2038C89.7937 27.127 89.7938 26.0347 89.7563 24.9578C93.7754 21.3772 97.2441 16.9441 100 11.8662C96.2457 13.9034 92.2673 15.2461 88.1938 15.8506C92.4846 12.6942 95.6983 7.72775 97.2375 1.87446C93.2062 4.81372 88.7938 6.87707 84.1937 7.97414C81.1011 3.92069 77.0088 1.2354 72.5505 0.334218C68.0923 -0.566967 63.517 0.366247 59.5334 2.98931C55.5497 5.61236 52.38 9.77888 50.5153 14.8435C48.6506 19.9081 48.1949 25.5881 49.2188 31.0037C41.0609 30.5003 33.0801 27.8921 25.794 23.3483C18.5079 18.8045 12.0793 12.4265 6.925 4.62816C4.30838 10.19 3.50984 16.7691 4.69154 23.0292C5.87324 29.2894 8.94659 34.7614 13.2875 38.3341C10.0346 38.198 6.85326 37.123 4 35.1958V35.5419C4.00561 41.3684 5.64567 47.0138 8.64296 51.5238C11.6403 56.0339 15.8109 59.132 20.45 60.2944C18.6891 60.8914 16.8702 61.189 15.0438 61.179C13.7561 61.1838 12.4711 61.037 11.2062 60.7406C12.5174 65.7561 15.0705 70.1413 18.5078 73.282C21.9451 76.4227 26.0946 78.1615 30.375 78.255C23.1035 85.2839 14.1213 89.096 4.875 89.0775C3.24575 89.086 1.61764 88.9704 0 88.7314C9.38447 96.0945 20.2831 100.004 31.4125 100V100Z" fill="#03C2A0"/>
</svg>
