<svg width="100" height="100" viewBox="0 0 100 100" fill="none" xmlns="http://www.w3.org/2000/svg">
<path d="M53.125 93.75C45.0521 93.75 37.4674 91.7969 30.3711 87.8906L0 100L12.1094 69.6289C8.20312 62.5326 6.25 54.9479 6.25 46.875C6.25 40.4948 7.48698 34.4238 9.96094 28.6621C12.4349 22.9004 15.7715 17.9199 19.9707 13.7207C24.1699 9.52148 29.1504 6.1849 34.9121 3.71094C40.6738 1.23698 46.7448 0 53.125 0C59.5052 0 65.5762 1.23698 71.3379 3.71094C77.0996 6.1849 82.0801 9.52148 86.2793 13.7207C90.4785 17.9199 93.8151 22.9004 96.2891 28.6621C98.763 34.4238 100 40.4948 100 46.875C100 53.2552 98.763 59.3262 96.2891 65.0879C93.8151 70.8496 90.4785 75.8301 86.2793 80.0293C82.0801 84.2285 77.0996 87.5651 71.3379 90.0391C65.5762 92.513 59.5052 93.75 53.125 93.75ZM68.75 56.25H62.5L58.9844 59.375C56.0547 58.5938 52.4577 56.071 48.1934 51.8066C43.929 47.5423 41.4062 43.9453 40.625 41.0156L43.75 37.5V31.25C43.75 30.1432 43.3594 29.0365 42.5781 27.9297C41.7969 26.8229 40.9342 26.0254 39.9902 25.5371C39.0462 25.0488 38.3789 25 37.9883 25.3906L33.3984 29.9805C30.8594 32.5195 30.485 36.4746 32.2754 41.8457C34.0658 47.2168 37.4837 52.4251 42.5293 57.4707C47.5749 62.5163 52.7832 65.9342 58.1543 67.7246C63.5254 69.515 67.4805 69.1406 70.0195 66.6016L74.6094 62.0117C75 61.6211 74.9512 60.9538 74.4629 60.0098C73.9746 59.0658 73.1771 58.2031 72.0703 57.4219C70.9635 56.6406 69.8568 56.25 68.75 56.25Z" fill="#03C2A0"/>
</svg>
